<svg version="1.1" xmlns="http://www.w3.org/2000/svg" viewBox="0 0 15 15">
<path d="M1,5L10,1L14,10L5,14Z" stroke="#666" fill="#FFF"/>
<path d="M1,5L10,1L10.45,2L1.45,6Z" stroke="#00C" fill="#00C"/>
<path d="M5.25,13.35L13.35,9.75L10.2,2.65L10.2,4.5L12.25,9.25L6.25,12Z" fill="#999"/>
<circle cx="2.25" cy="5.5" r="0.8" fill="#FC0"/>
<circle cx="9.5" cy="2.25" r="0.8" fill="#999"/>
<path d="M2.1,6.25L10.2,2.65C9.85,4 9.85,4 9,4.35L4,6.55C3.2,6.8 3.2,6.8 2.1,6.25Z" fill="#999"/>
<path d="M7,7H14V14H7Z" stroke="#000" fill="#CCC"/>
<path d="M7.5,7.5H13.5L12,8.5H8.5V12L7.5,13.5Z" fill="#FFF"/>
<path d="M7.5,13.5H13.5V7.5L12.5,9V12.5H9Z" fill="#999"/>
<circle cx="9.5" cy="9.5" r="1.2" fill="#F00"/>
</svg>