<svg version="1.1" xmlns="http://www.w3.org/2000/svg" viewBox="0 0 15 15">
<path d="M1,5L10,1L14,10L5,14Z" stroke="#666" fill="#FFF"/>
<path d="M1,5L10,1L10.45,2L1.45,6Z" stroke="#00C" fill="#00C"/>
<path d="M5.25,13.35L13.35,9.75L10.2,2.65L10.2,4.5L12.25,9.25L6.25,12Z" fill="#999"/>
<circle cx="2.25" cy="5.5" r="0.8" fill="#FC0"/>
<circle cx="9.5" cy="2.25" r="0.8" fill="#999"/>
<path d="M2.1,6.25L10.2,2.65C9.85,4 9.85,4 9,4.35L4,6.55C3.2,6.8 3.2,6.8 2.1,6.25Z" fill="#999"/>
<path d="M7,6H14V14H7Z" stroke="#000" fill="#0CF"/>
<path d="M7.5,10.5H13.5V13.5H7.5Z" fill="#090"/>
<path d="M7.5,9.5H13.5V10.5H7.5Z" fill="#960"/>
<path d="M9,7.5V12.5" stroke="#009"/>
<path d="M10.5,8.5H12.5V11.5H10.5Z" fill="#C00"/>
</svg>