<svg version="1.1" xmlns="http://www.w3.org/2000/svg" viewBox="0 0 16 16">
<path d="M1.5,5.5L3.75,4.5L7,5.75L11.5,3.75L14.5,10.5L5.5,14.5Z" stroke="#000" fill="#FC3"/>
<path d="M3.75,8.25L11,5.1L13.25,10L6,13.25Z" stroke="#C93" fill="#FC3"/>
<path d="M8.5,9.5L13.5,7.5L15.5,12.5L10.5,14.5Z" stroke="#000" fill="#339"/>
<path d="M9.5,10L10.5,10L10.5,9L11.5,9L11.5,10L12.5,10L12.5,11L11.5,11L11.5,13L10.5,13L10.5,11L9.5,11Z" fill="#FC0"/>
<path d="M12.5,11.5L13,11L13.5,11.5L14,11L14.5,11.5L14,12L14.5,12.5L14,13L13.5,12.5L13,13L12.5,12.5L13,12Z" fill="#FC0" stroke="#FC0" stroke-width="0.6"/>
</svg>
