<svg version="1.1" xmlns="http://www.w3.org/2000/svg" viewBox="0 0 16 16">
<path d="M1.5,5.5L10.5,1.5L14.5,10.5L5.5,14.5Z" stroke="#666" fill="#FFF"/>
<path d="M1.5,5.5L10.5,1.5L10.95,2.5L1.95,6.5Z" stroke="#00C" fill="#00C"/>
<path d="M5.75,13.85L13.85,10.25L10.7,3.15L10.7,5L12.75,9.75L6.75,12.5Z" fill="#999"/>
<circle cx="2.75" cy="6" r="0.8" fill="#FC0"/>
<circle cx="10" cy="2.75" r="0.8" fill="#999"/>
<path d="M2.6,6.75L10.7,3.15C10.35,4.5 10.35,4.5 9.5,4.85L4.5,7.05C3.7,7.3 3.7,7.3 2.6,6.75Z" fill="#999"/>
<path d="M8.5,9.5L13.5,7.5L15.5,12.5L10.5,14.5Z" stroke="#000" fill="#339"/>
<path d="M9.5,10L10.5,10L10.5,9L11.5,9L11.5,10L12.5,10L12.5,11L11.5,11L11.5,13L10.5,13L10.5,11L9.5,11Z" fill="#FC0"/>
<path d="M12.5,11.5L13,11L13.5,11.5L14,11L14.5,11.5L14,12L14.5,12.5L14,13L13.5,12.5L13,13L12.5,12.5L13,12Z" fill="#FC0" stroke="#FC0" stroke-width="0.6"/>
</svg>
