<svg version="1.1" xmlns="http://www.w3.org/2000/svg" viewBox="0 0 16 16">
<circle cx="1.5" cy="5.5" r="0.6" stroke="none" fill="#999"/>
<circle cx="3.75" cy="4.5" r="0.6" stroke="none" fill="#999"/>
<circle cx="6" cy="3.5" r="0.6" stroke="none" fill="#999"/>
<circle cx="8.25" cy="2.5" r="0.6" stroke="none" fill="#999"/>
<circle cx="10.5" cy="1.5" r="0.6" stroke="none" fill="#999"/>
<circle cx="11.5" cy="3.75" r="0.6" stroke="none" fill="#999"/>
<circle cx="12.5" cy="6" r="0.6" stroke="none" fill="#999"/>
<circle cx="13.5" cy="8.25" r="0.6" stroke="none" fill="#999"/>
<circle cx="14.5" cy="10.5" r="0.6" stroke="none" fill="#999"/>
<circle cx="12.25" cy="11.5" r="0.6" stroke="none" fill="#999"/>
<circle cx="10" cy="12.5" r="0.6" stroke="none" fill="#999"/>
<circle cx="7.75" cy="13.5" r="0.6" stroke="none" fill="#999"/>
<circle cx="5.5" cy="14.5" r="0.6" stroke="none" fill="#999"/>
<circle cx="4.5" cy="12.25" r="0.6" stroke="none" fill="#999"/>
<circle cx="3.5" cy="10" r="0.6" stroke="none" fill="#999"/>
<circle cx="2.5" cy="7.75" r="0.6" stroke="none" fill="#999"/>
<path d="M8.5,9.5L13.5,7.5L15.5,12.5L10.5,14.5Z" stroke="#000" fill="#339"/>
<path d="M9.5,10L10.5,10L10.5,9L11.5,9L11.5,10L12.5,10L12.5,11L11.5,11L11.5,13L10.5,13L10.5,11L9.5,11Z" fill="#FC0"/>
<path d="M12.5,11.5L13,11L13.5,11.5L14,11L14.5,11.5L14,12L14.5,12.5L14,13L13.5,12.5L13,13L12.5,12.5L13,12Z" fill="#FC0" stroke="#FC0" stroke-width="0.6"/>
</svg>
