<svg version="1.1" xmlns="http://www.w3.org/2000/svg" viewBox="0 0 15 15">
<path d="M1,5L3.25,4L6.5,5.25L11,3.25L14,10L5,14Z" stroke="#000" fill="#FC3"/>
<path d="M3.25,7.75L10.5,4.6L12.75,9.5L5.5,12.75Z" stroke="#C93" fill="#FC3"/>
<path d="M8,9L13,7L15,12L10,14Z" stroke="#000" fill="#339"/>
<path d="M9,9.5L10,9.5L10,8.5L11,8.5L11,9.5L12,9.5L12,10.5L11,10.5L11,12.5L10,12.5L10,10.5L9,10.5Z" fill="#FC0"/>
<path d="M12,11L12.5,10.5L13,11L13.5,10.5L14,11L13.5,11.5L14,12L13.5,12.5L13,12L12.5,12.5L12,12L12.5,11.5Z" fill="#FC0" stroke="#FC0" stroke-width="0.1"/>
</svg>