<svg version="1.1" xmlns="http://www.w3.org/2000/svg" viewBox="0 0 16 16">
<path d="M2.5,2.5H13.5V13.5H2.5Z" stroke="#000" fill="#CCC"/>
<path d="M3,3H13L11.5,4H4V5.5L3,7Z" fill="#FFF"/>
<path d="M3,7H13V3L12,4.5V6H4.5Z" fill="#999"/>
<path d="M3,7H13L11.5,8H4V11.5L3,13Z" fill="#FFF"/>
<path d="M3,13H13V7L12,8.5V12H4.5Z" fill="#999"/>
<circle cx="5" cy="5" r="1.2" fill="#F00"/>
<path d="M8.5,9.5L13.5,7.5L15.5,12.5L10.5,14.5Z" stroke="#000" fill="#339"/>
<path d="M9.5,10L10.5,10L10.5,9L11.5,9L11.5,10L12.5,10L12.5,11L11.5,11L11.5,13L10.5,13L10.5,11L9.5,11Z" fill="#FC0"/>
<path d="M12.5,11.5L13,11L13.5,11.5L14,11L14.5,11.5L14,12L14.5,12.5L14,13L13.5,12.5L13,13L12.5,12.5L13,12Z" fill="#FC0" stroke="#FC0" stroke-width="0.6"/>
</svg>
