<svg version="1.1" xmlns="http://www.w3.org/2000/svg" viewBox="0 0 15 15">
<path d="M2,2H13V13H2Z" stroke="#000" fill="#CCC"/>
<path d="M2.5,2.5H12.5L11,3.5H3.5V5L2.5,6.5Z" fill="#FFF"/>
<path d="M2.5,6.5H12.5V2.5L11.5,4V5.5H4Z" fill="#999"/>
<path d="M2.5,6.5H12.5L11,7.5H3.5V11L2.5,12.5Z" fill="#FFF"/>
<path d="M2.5,12.5H12.5V6.5L11.5,8V11.5H4Z" fill="#999"/>
<circle cx="4.5" cy="4.5" r="1.2" fill="#F00"/>
<path d="M8,9L13,7L15,12L10,14Z" stroke="#000" fill="#339"/>
<path d="M9,9.5L10,9.5L10,8.5L11,8.5L11,9.5L12,9.5L12,10.5L11,10.5L11,12.5L10,12.5L10,10.5L9,10.5Z" fill="#FC0"/>
<path d="M12,11L12.5,10.5L13,11L13.5,10.5L14,11L13.5,11.5L14,12L13.5,12.5L13,12L12.5,12.5L12,12L12.5,11.5Z" fill="#FC0" stroke="#FC0" stroke-width="0.1"/>
</svg>