<svg version="1.1" xmlns="http://www.w3.org/2000/svg" viewBox="0 0 15 15">
<circle cx="1" cy="5" r="0.6" stroke="none" fill="#999"/>
<circle cx="3.25" cy="4" r="0.6" stroke="none" fill="#999"/>
<circle cx="5.5" cy="3" r="0.6" stroke="none" fill="#999"/>
<circle cx="7.75" cy="2" r="0.6" stroke="none" fill="#999"/>
<circle cx="10" cy="1" r="0.6" stroke="none" fill="#999"/>
<circle cx="11" cy="3.25" r="0.6" stroke="none" fill="#999"/>
<circle cx="12" cy="5.5" r="0.6" stroke="none" fill="#999"/>
<circle cx="13" cy="7.75" r="0.6" stroke="none" fill="#999"/>
<circle cx="14" cy="10" r="0.6" stroke="none" fill="#999"/>
<circle cx="11.75" cy="11" r="0.6" stroke="none" fill="#999"/>
<circle cx="9.5" cy="12" r="0.6" stroke="none" fill="#999"/>
<circle cx="7.25" cy="13" r="0.6" stroke="none" fill="#999"/>
<circle cx="5" cy="14" r="0.6" stroke="none" fill="#999"/>
<circle cx="4" cy="11.75" r="0.6" stroke="none" fill="#999"/>
<circle cx="3" cy="9.5" r="0.6" stroke="none" fill="#999"/>
<circle cx="2" cy="7.25" r="0.6" stroke="none" fill="#999"/>
<path d="M8,9L13,7L15,12L10,14Z" stroke="#000" fill="#339"/>
<path d="M9,9.5L10,9.5L10,8.5L11,8.5L11,9.5L12,9.5L12,10.5L11,10.5L11,12.5L10,12.5L10,10.5L9,10.5Z" fill="#FC0"/>
<path d="M12,11L12.5,10.5L13,11L13.5,10.5L14,11L13.5,11.5L14,12L13.5,12.5L13,12L12.5,12.5L12,12L12.5,11.5Z" fill="#FC0" stroke="#FC0" stroke-width="0.1"/>
</svg>