<svg version="1.1" xmlns="http://www.w3.org/2000/svg" viewBox="0 0 16 16">
<path d="M0.5,5H3V7H1Z" fill="#CCC"/>
<path d="M13,5H15.5V7H13Z" fill="#CCC"/>
<path d="M2,5H0.5V6.5Z" fill="#FFF"/>
<path d="M1.5,7H3V5.5Z" fill="#999"/>
<path d="M14.2,5H13V6.1Z" fill="#FFF"/>
<path d="M15.5,5.3V7H13.5Z" fill="#999"/>
<path d="M3,4.5H0C0,6.5 1,7.5 3,7.5M13,4.5H16C16,6.5 15,7.5 13,7.5" stroke="#000" fill="none"/>
<path d="M5.5,10C5.5,13.5 1.5,9.5 1.5,13.5H14.5C14.5,9.5 10.5,13.5 10.5,10" fill="#CCC"/>
<path d="M1.5,13V12.5L3.5,11.3L5,11.3L5.5,9.5H10.5L11,11.3C5,8.5 8,13 3,13Z" fill="#FFF"/>
<path d="M3.5,3.5H12.5V9.5H3.5Z" stroke="#000" fill="#CCC"/>
<path d="M4,4H12L10.5,5	H5V7.5L4,9Z" fill="#FFF"/>
<path d="M4,9H12V4L11,5.5V8H5.5Z" fill="#999"/>
<path d="M4,13H14V12.1Z" fill="#999"/>
<path d="M5.5,10C5.5,12.5 3.5,9.5 1.5,13.5H14.5C12.5,9.5 10.5,12.5 10.5,10" stroke="#000" fill="none"/>
<path d="M7.5,7.5H9.5L11.5,9.5L13.5,7.5H15.5V9.5L13.5,11.5L15.5,13.5V15.5H13.5L11.5,13.5L9.5,15.5H7.5V13.5L9.5,11.5L7.5,9.5Z" fill="#F00" stroke="#000"/>
</svg>
