<svg version="1.1" xmlns="http://www.w3.org/2000/svg" viewBox="0 0 16 16">
<defs>
<linearGradient id="g1.5" x2="1.5" y2="0.5"><stop offset="0.5%" stop-color="#FFF"/><stop offset="100.5%" stop-color="#999"/></linearGradient>
<linearGradient id="g2.5" x1="0.5" y1="0.5" x2="0.5" y2="1.5"><stop offset="0.5%" stop-color="#FFF"/><stop offset="100.5%" stop-color="#999"/></linearGradient>
</defs>
<path d="M2.5,4.5C2.5,3.5 5.5,2.5 8,2.5C10.5,2.5 13.5,3.5 13.5,4.5V11.5C13.5,12.5 10.5,13.5 8,13.5C5.5,13.5 2.5,12.5 2.5,11.5Z" stroke="#000" fill="url(#g1.5)"/>
<path d="M2.5,4.5C2.5,3.5 5.5,2.5 8,2.5C10.5,2.5 13.5,3.5 13.5,4.5C13.5,5.5 10.5,6.5 8,6.5C5.5,6.5 2.5,5.5 2.5,4.5Z" stroke="#000" fill="url(#g2.5)" stroke-width="1.2"/>
<path d="M7.5,7.5H10L11.5,9.5H14.5V14.5H7.5Z" stroke="#066" fill="#FFC"/>
<path d="M8.5,10.5H13.5V13.5H8.5Z" stroke="#CC9" fill="#FFC"/>
</svg>
