<svg version="1.1" xmlns="http://www.w3.org/2000/svg" viewBox="0 0 15 15">
<defs>
<linearGradient id="g1" x2="1" y2="0"><stop offset="0%" stop-color="#FFF"/><stop offset="100%" stop-color="#999"/></linearGradient>
<linearGradient id="g2" x1="0" y1="0" x2="0" y2="1"><stop offset="0%" stop-color="#FFF"/><stop offset="100%" stop-color="#999"/></linearGradient>
</defs>
<path d="M2.7,5.7L9.4,2.7L12.3,9.3L5.6,12.3Z" stroke="#066" fill="#FFC"/>
<path d="M5,7H7.5V5L10.5,7.5L7.5,10L7.5,8H5Z" fill="#C00"/>
<path d="M8,9.5C8,9 10,8.5 11,8.5C12,8.5 14,9 14,9.5V13C14,13.5 12,14 11,14C10,14 8,13.5 8,13Z" stroke="#000" fill="url(#g1)" stroke-width="0.7"/>
<path d="M8,9.5C8,9 10,8.5 11,8.5C12,8.5 14,9 14,9.5C14,10 12,10.5 11,10.5C10,10.5 8,10 8,9.5Z" stroke="#000" fill="url(#g2)" stroke-width="0.5"/>
</svg>