<svg version="1.1" xmlns="http://www.w3.org/2000/svg" viewBox="0 0 16 16">
<defs>
<linearGradient id="g1.5" x2="1.5" y2="0.5"><stop offset="0.5%" stop-color="#FFC"/><stop offset="100.5%" stop-color="#996"/></linearGradient>
<linearGradient id="g2.5" x1="0.5" y1="0.5" x2="0.5" y2="1.5"><stop offset="0.5%" stop-color="#FFC"/><stop offset="100.5%" stop-color="#996"/></linearGradient>
</defs>
<path d="M2.5,4.5C2.5,3.5 5.5,2.5 8,2.5C10.5,2.5 13.5,3.5 13.5,4.5V11.5C13.5,12.5 10.5,13.5 8,13.5C5.5,13.5 2.5,12.5 2.5,11.5Z" stroke="#066" fill="url(#g1.5)"/>
<path d="M2.5,4.5C2.5,3.5 5.5,2.5 8,2.5C10.5,2.5 13.5,3.5 13.5,4.5C13.5,5.5 10.5,6.5 8,6.5C5.5,6.5 2.5,5.5 2.5,4.5Z" stroke="#066" fill="url(#g2.5)" stroke-width="1.2" />
<path d="M7.5,7.5H9.5L11.5,9.5L13.5,7.5H15.5V9.5L13.5,11.5L15.5,13.5V15.5H13.5L11.5,13.5L9.5,15.5H7.5V13.5L9.5,11.5L7.5,9.5Z" fill="#F00" stroke="#000"/>
</svg>
