<svg version="1.1" xmlns="http://www.w3.org/2000/svg" viewBox="0 0 16 16">
<defs>
<linearGradient id="g1.5" x2="1.5" y2="0.5"><stop offset="0.5%" stop-color="#FFC"/><stop offset="100.5%" stop-color="#996"/></linearGradient>
<linearGradient id="g2.5" x1="0.5" y1="0.5" x2="0.5" y2="1.5"><stop offset="0.5%" stop-color="#FFC"/><stop offset="100.5%" stop-color="#996"/></linearGradient>
</defs>
<path d="M1.5,5.5L3.75,4.5L7,5.75L11.5,3.75L14.5,10.5L5.5,14.5Z" stroke="#066" fill="#FFC"/>
<path d="M3.75,8.25L11,5.1L13.25,10L6,13.25Z" stroke="#CC9" fill="#FFC"/>
<path d="M8.5,10C8.5,9.5 10.5,9 11.5,9C12.5,9 14.5,9.5 14.5,10V13.5C14.5,14 12.5,14.5 11.5,14.5C10.5,14.5 8.5,14 8.5,13.5Z" stroke="#066" fill="url(#g1.5)" stroke-width="1.2"/>
<path d="M8.5,10C8.5,9.5 10.5,9 11.5,9C12.5,9 14.5,9.5 14.5,10C14.5,10.5 12.5,11 11.5,11C10.5,11 8.5,10.5 8.5,10Z" stroke="#066" fill="url(#g2.5)" stroke-width="1"/>
</svg>
