<svg version="1.1" xmlns="http://www.w3.org/2000/svg" viewBox="0 0 16 16">
<path d="M1.5,2.5V11.5L5.5,15.5H14.5V6.5H5.5Z" stroke="#000" fill="#909"/>
<path d="M6.5,11.5H13V14H6.5Z" fill="#CCC"/>
<path d="M6.5,4.5L12.5,2.5V11.5L6.5,13.5Z" stroke="#666" fill="#FFF"/>  
<path d="M2.1,2.4L3.5,1L6.8,4.3" stroke="#666" fill="none"/>
<path d="M2.4,2.75L3.5,1.7L6,4.2V11.5L2.4,7.9Z" fill="#CCC"/>
<path d="M2.4,2.75V10.7L6,14.2V11.5L4,9.5Z" fill="#FFF"/>
<path d="M7.1,7L8.1,6.75ZM9,6.5L10,6.25ZM10.9,6L11.9,5.75ZM7.1,9L8.1,8.75ZM9,8.5L10,8.25ZM10.9,8L11.9,7.75ZM7.1,11L8.1,10.75ZM9,10.5L10,10.25ZM10.9,10L11.9,9.75Z" stroke="#FC0" fill="none"/>
</svg>
