<svg version="1.1" xmlns="http://www.w3.org/2000/svg" viewBox="0 0 16 16">
<path d="M1.5,5.5L3.75,4.5L7,5.75L11.5,3.75L14.5,10.5L5.5,14.5Z" stroke="#000" fill="#FC3"/>
<path d="M3.75,8.25L11,5.1L13.25,10L6,13.25Z" stroke="#C93" fill="#FC3"/>
<path d="M7.5,7.5V12.5L10.5,15.5H15.5V9.5H10.5Z" stroke="#000" fill="#FFF"/>
<path d="M10.5,14.5H15Z" stroke="#C0C" fill="none"/>
<path d="M9.5,7.5V11" stroke="#CCC"/>
<path d="M8.5,7.5V12.5L10.5,14.5" stroke="#C0C" fill="none"/>
<path d="M10.5,14.5L14.5,13.5V9L10.5,10Z" stroke="#666" fill="#FFF"/>
<path d="M10.5,10V8.85L8.5,7L7.75,7.75" stroke="#666" fill="none"/>
<path d="M11.1,12L12,11.75ZM12.9,11L13.9,10.75ZM12,13L13,12.75Z" stroke="#FC0" fill="none"/>
</svg>
