<svg version="1.1" xmlns="http://www.w3.org/2000/svg" viewBox="0 0 16 16">
<path d="M3.5,5.5L6.5,2.5H12.5V13.5H3.5Z" stroke="#000" fill="#FFF"/>
<path d="M4,5.7L6.7,3H9V8H4Z" fill="#CCC"/>
<path d="M4,6.5H7.5V3" stroke="#000" fill="none"/>
<path d="M4.5,7V12.5H12" stroke="#909" fill="none"/>
<path d="M4,6H7V4.5Z" fill="#909"/>
<path d="M8,4.5H9ZM8,6.5H9Z" stroke="#C90" fill="none"/>
<path d="M9,4.5H11ZM9,6.5H11ZM6,8.5H11ZM6,10.5H11Z" stroke="#FC0" fill="none"/>
<path d="M7.5,6.5H14.5V14.5H7.5Z" stroke="#000" fill="#FFF"/>
<path d="M12,8.5H13M12,10.5H13M9,12.5H13" stroke="#000"/>
<path d="M9,8H11V11H9Z" fill="#F00"/>
</svg>
