<svg version="1.1" xmlns="http://www.w3.org/2000/svg" viewBox="0 0 15 15">
<path d="M1,2H3V7H1Z" stroke="#000" fill="#C00"/>
<path d="M3,2L4,1L9,1C10,1 11,2 11,3C12,3 12,4 12,5C12.5,5 13,5.5 13,6C13,6.5 12.5,7 12,7C12.5,7 13,7.5 13,8C13,8.5 12.5,9 12,9H9V13C9,13.5 8.5,14 8,14C7.5,14 6,12.5 6,12V9L4,7H3Z" stroke="#000" fill="#FC9"/>
<path d="M7,1
C7,2 7,3 8,3H11H9
C8.5,3 8,3.5 8,4C8,4.5 8.5,5 9,5H11.5H9
C8.5,5 8,5.5 8,6C8,6.5 8.5,7 9,7H12H9
C8.5,7 8,7.5 8,8C8,8.5 8.5,9 9,9
" stroke="#000" fill="none"/>
</svg>
