<svg version="1.1" xmlns="http://www.w3.org/2000/svg" viewBox="0 0 16 16">
<path d="M1.5,2.5H3.5V7.5H1.5Z" stroke="#000" fill="#C00"/>
<path d="M3.5,2.5L4.5,1.5L9.5,1.5C10.5,1.5 11.5,2.5 11.5,3.5C12.5,3.5 12.5,4.5 12.5,5.5C13,5.5 13.5,6 13.5,6.5C13.5,7 13,7.5 12.5,7.5C13,7.5 13.5,8 13.5,8.5C13.5,9 13,9.5 12.5,9.5H9.5V13.5C9.5,14 9,14.5 8.5,14.5C8,14.5 6.5,13 6.5,12.5V9.5L4.5,7.5H3.5Z" stroke="#000" fill="#FC9"/>
<path d="M7.5,1.5C7.5,2.5 7.5,3.5 8.5,3.5H11.5H9.5C9,3.5 8.5,4 8.5,4.5C8.5,5 9,5.5 9.5,5.5H12H9.5C9,5.5 8.5,6 8.5,6.5C8.5,7 9,7.5 9.5,7.5H12.5H9.5C9,7.5 8.5,8 8.5,8.5C8.5,9 9,9.5 9.5,9.5" stroke="#000" fill="none"/>
</svg>
