<svg version="1.1" xmlns="http://www.w3.org/2000/svg" viewBox="0 0 16 16">
<path d="M2.5,5.5L9.5,2.5L12.5,9.5L5.5,12.5Z" stroke="#F00" fill="#FF6"/>
<path d="M10,7H7.5V4.75L4.25,7.5L7.5,10.25L7.5,8H10Z" fill="#000"/>
<path d="M11.5,4.5C11.5,5.325 10.825,6 10,6C9.175,6 8.5,5.325 8.5,4.5C8.5,2.85 9.85,2.5 11.5,2.5C13.15,2.5 14.5,3.35 14.5,5C14.5,6 13.5,6 13.5,7C13.5,7.825 12.825,8.5 12,8.5C12.825,8.5 13.5,9.175 13.5,10C13.5,10.825 12.825,11.5 12,11.5C11.175,11.5 10.5,10.825 10.5,10C10.5,9.175 11.175,8.5 12,8.5C11.175,8.5 10.5,7.825 10.5,7C10.5,6 11.5,6 11.5,4Z" stroke="#000" stroke-width="1.3" fill="#0C0"/>
</svg>
