<svg version="1.1" xmlns="http://www.w3.org/2000/svg" viewBox="0 0 15 15">
<path d="M2.7,5.7L9.4,2.7L12.3,9.3L5.6,12.3Z" stroke="#F00" fill="#FF6"/>
<path d="M10,7H7.5V5L4.5,7.5L7.5,10L7.5,8H10Z" fill="#000"/>
<path d="
M11,4
C11,4.825 10.325,5.5 9.5,5.5
C8.675,5.5 8,4.825 8,4
C8,2.35 9.35,2 11,2
C12.65,2 14,2.85 14,4.5

C14,5.5 13,5.5 13,6.5
C13,7.325 12.325,8 11.5,8
C12.325,8 13,8.675 13,9.5
C13,10.325 12.325,11 11.5,11
C10.675,11 10,10.325 10,9.5
C10,8.675 10.675,8 11.5,8
C10.675,8 10,7.325 10,6.5

C10,5.5 11,5.5 11,3.5


Z" stroke="#000" stroke-width="0.8" fill="#0C0"/>
</svg>