<svg version="1.1" xmlns="http://www.w3.org/2000/svg" viewBox="0 0 16 16">
<path d="M2.5,5.5L9.5,2.5L12.5,9.5L5.5,12.5Z" stroke="#F00" fill="#FF6"/>
<path d="M10.5,7.5H8V5.5L5,8L8,10.5L8,8.5H10.5Z" fill="#000"/>
<path d="M13,2.5C13.625,2.5 14.5,3.175 14.5,4V7C14.5,7.825 13.825,8.5 13,8.5C13.825,8.5 14.5,9.175 14.5,10C14.5,10.825 13.825,11.5 13,11.5C12.175,11.5 11.5,10.825 11.5,10C11.5,9.175 12.175,8.5 13,8.5C12.175,8.5 11.5,7.825 11.5,7V4C11.5,3.175 12.175,2.5 13,2.5Z" stroke="#000" stroke-width="1.3" fill="#C00"/>
</svg>
