<svg version="1.1" xmlns="http://www.w3.org/2000/svg" viewBox="0 0 16 16">
<defs>
<linearGradient id="g1.5" x2="1.5" y2="0.5"><stop offset="0.5%" stop-color="#FFC"/><stop offset="100.5%" stop-color="#996"/></linearGradient>
<linearGradient id="g2.5" x1="0.5" y1="0.5" x2="0.5" y2="1.5"><stop offset="0.5%" stop-color="#FFC"/><stop offset="100.5%" stop-color="#996"/></linearGradient>
</defs>
<path d="M2.5,5.5L9.5,2.5L12.5,9.5L5.5,12.5Z" stroke="#F00" fill="#FF6"/>
<path d="M6.2,6.5C6.7,5.5 8.8,5.3 9,6.5C9.2,7.3 8,7.3 7.8,8.5" stroke="#000" stroke-width="1.6" fill="none"/>
<circle cx="7.8" cy="10" r="0.8" fill="#000"/>
<path d="M8.5,10C8.5,9.5 10.5,9 11.5,9C12.5,9 14.5,9.5 14.5,10V13.5C14.5,14 12.5,14.5 11.5,14.5C10.5,14.5 8.5,14 8.5,13.5Z" stroke="#066" fill="url(#g1.5)" stroke-width="1.2"/>
<path d="M8.5,10C8.5,9.5 10.5,9 11.5,9C12.5,9 14.5,9.5 14.5,10C14.5,10.5 12.5,11 11.5,11C10.5,11 8.5,10.5 8.5,10Z" stroke="#066" fill="url(#g2.5)" stroke-width="1"/>
</svg>
