<svg version="1.1" xmlns="http://www.w3.org/2000/svg" viewBox="0 0 16 16">
<path d="M1.5,5.5L3.75,4.5L7,5.75L11.5,3.75L14.5,10.5L5.5,14.5Z" stroke="#000" fill="#FC3"/>
<path d="M3.75,8.25L11,5.1L13.25,10L6,13.25Z" stroke="#C93" fill="#FC3"/>
<path d="M8.5,7.5L10,8.5L11.5,7.5L13,8.5L14.5,7.5V11.5C14.5,13.5 12.5,13.5 11.5,14.5C10.5,13.5 8.5,13.5 8.5,11.5Z" stroke="#000" fill="#999"/>
<path d="M10.5,9L12.5,10L10.5,11L12.5,12L10.5,13L11.7,13.7C12.5,13.3 14,12.9 14,11.5V8.4L13,9.1L11.9,8.4Z" stroke="none" fill="#CCC"/>
</svg>
