<svg version="1.1" xmlns="http://www.w3.org/2000/svg" viewBox="0 0 16 16">
<path d="M1.5,5.5L10.5,1.5L14.5,10.5L5.5,14.5Z" stroke="#C00" fill="#FFF"/>
<path d="M1.5,5.5L10.5,1.5" stroke="#999" fill="none" />
<path d="M1.2,4.8L1.8,6.2ZM3.2,3.9L3.8,5.3ZM5.2,3L5.8,4.4ZM7.2,2.1L7.8,3.5ZM9.2,1.2L9.8,2.6Z" stroke="#000" fill="none"/>
<path d="M6.5,12.5L4,6.9L9.5,4.5L11.9,9.7M6,6.5L8.25,11.5M7.75,5.5L10,10.5" stroke="#999" fill="none"/>
<path d="M5.8,8.5L6.25,9.5" stroke="#000"/>
<path d="M6,6.5L6.45,7.5M9.55,7L10,8M10.6,9.25L11.05,10.25" stroke="#C00" fill="none"/>
<path d="M8.4,4.5L9.1,6" stroke="#F00" fill="none"/>
</svg>
