<svg version="1.1" xmlns="http://www.w3.org/2000/svg" viewBox="0 0 15 15">
<defs>
<linearGradient id="g1" x2="1" y2="0"><stop offset="0%" stop-color="#FFF"/><stop offset="100%" stop-color="#999"/></linearGradient>
<linearGradient id="g2" x1="0" y1="0" x2="0" y2="1"><stop offset="0%" stop-color="#FFF"/><stop offset="100%" stop-color="#999"/></linearGradient>
</defs>
<path d="M2,4C2,3 5,2 7.5,2C10,2 13,3 13,4V11C13,12 10,13 7.5,13C5,13 2,12 2,11Z" stroke="#000" fill="url(#g1)"/>
<path d="M2,4C2,3 5,2 7.5,2C10,2 13,3 13,4C13,5 10,6 7.5,6C5,6 2,5 2,4Z" stroke="#000" fill="url(#g2)" stroke-width="0.7" />
<path d="M6,7H14V13H6Z" stroke="#000" fill="#FFF"/>
<path d="M6.5,7.5L10,11L13.5,7.5M6.5,12.5L9,10M13.5,12.5L11,10" stroke="#000" stroke-width="0.8" fill="none"/>
</svg>
