<svg version="1.1" xmlns="http://www.w3.org/2000/svg" viewBox="0 0 16 16">
<path d="M2.5,2.5H13.5V13.5H2.5Z" stroke="#000" fill="#CCC"/>
<path d="M3,3H13L11.5,4H4V5.5L3,7Z" fill="#FFF"/>
<path d="M3,7H13V3L12,4.5V6H4.5Z" fill="#999"/>
<path d="M3,7H13L11.5,8H4V11.5L3,13Z" fill="#FFF"/>
<path d="M3,13H13V7L12,8.5V12H4.5Z" fill="#999"/>
<circle cx="5" cy="5" r="1.2" fill="#090"/>
<path d="M6.5,7.5H14.5V13.5H6.5Z" stroke="#000" fill="#FFF"/>
<path d="M7,8L10.5,11.5L14,8M7,13L9.5,10.5M14,13L11.5,10.5" stroke="#000" stroke-width="0.8" fill="none"/>
</svg>
